<svg width="275" height="84" viewBox="0 0 275 84" fill="none" xmlns="http://www.w3.org/2000/svg">
<path d="M0 20.9484V46.0463C0 47.2326 0.609876 48.335 1.61325 48.9623L18.7276 59.6627C21.0083 61.0887 23.9623 59.4432 23.9623 56.7468V35.65C23.9623 34.4362 24.6006 33.3125 25.6413 32.6939L36.081 26.489V80.5589C36.081 83.2462 39.0172 84.8932 41.2985 83.4855L58.9629 72.5851C59.976 71.9599 60.5932 70.852 60.5932 69.6586V17.7361C60.5932 15.0618 57.6826 13.4129 55.4006 14.7942L36.081 26.489V3.44098C36.081 0.773993 33.1845 -0.876045 30.9022 0.490798L1.66918 17.9982C0.633988 18.6182 0 19.7387 0 20.9484Z" fill="white"/>
<path d="M125.354 46.1061C125.354 38.9888 122.442 35.7039 116.616 35.7039C109.945 35.7039 105.247 40.175 105.247 50.2123V73.2067H93.2203V9.33333H105.247V32.6927C108.16 27.9479 112.952 25.5754 119.529 25.5754C130.71 25.5754 137.287 32.419 137.287 43.9162V73.2067H125.354V46.1061Z" fill="white"/>
<path d="M167.054 74.6667C152.114 74.6667 142.625 64.9944 142.625 50.121C142.625 35.4302 152.021 25.5754 167.054 25.5754C183.309 25.5754 192.141 37.0726 189.698 53.2235H154.651C155.309 60.8883 159.819 65.2682 167.054 65.2682C172.973 65.2682 176.544 62.257 177.483 59.2458H189.416C187.537 68.1881 179.269 74.6667 167.054 74.6667ZM154.933 45.2849H178.047C177.953 38.9888 173.819 34.7002 166.772 34.7002C160.477 34.7002 156.061 38.3501 154.933 45.2849Z" fill="white"/>
<path d="M196.257 38.7151C196.257 31.1415 200.485 27.0354 208.566 27.0354H223.975V36.8901H208.284V73.2067H196.257V38.7151Z" fill="white"/>
<path d="M250.289 74.6667C235.067 74.6667 225.389 64.9032 225.389 50.121C225.389 35.3389 235.067 25.5754 250.289 25.5754C265.322 25.5754 275 35.3389 275 50.121C275 64.9032 265.322 74.6667 250.289 74.6667ZM250.289 64.7207C257.805 64.7207 262.785 58.9721 262.785 50.121C262.785 41.27 257.805 35.4302 250.289 35.4302C242.678 35.4302 237.698 41.27 237.698 50.121C237.698 58.9721 242.678 64.7207 250.289 64.7207Z" fill="white"/>
</svg>
